<svg id="Group_50" data-name="Group 50" xmlns="http://www.w3.org/2000/svg" width="43.6" height="48" viewBox="0 0 43.6 48">
  <g id="Group_40" data-name="Group 40">
    <path id="Path_442" data-name="Path 442" d="M42.9,0H.7A.684.684,0,0,0,0,.7V47.2a.713.713,0,0,0,.7.8H20.4a.7.7,0,0,0,0-1.4H1.5V1.5H42.2V46.6H34.9a.7.7,0,1,0,0,1.4h8a.684.684,0,0,0,.7-.7V.7A.684.684,0,0,0,42.9,0Z" fill="currentColor"/>
  </g>
  <g id="Group_41" data-name="Group 41">
    <path id="Path_443" data-name="Path 443" d="M34.5,43.3a.684.684,0,0,0,.7-.7,2.9,2.9,0,0,1,2.9-2.9.684.684,0,0,0,.7-.7V9.1a.684.684,0,0,0-.7-.7,2.9,2.9,0,0,1-2.9-2.9.684.684,0,0,0-.7-.7H9.1a.684.684,0,0,0-.7.7A2.9,2.9,0,0,1,5.5,8.4a.684.684,0,0,0-.7.7V38.9a.684.684,0,0,0,.7.7,2.9,2.9,0,0,1,2.9,2.9.684.684,0,0,0,.7.7H23.3v4a.6.6,0,0,0,.3.6.854.854,0,0,0,.7,0l3.3-1.7,3.3,1.7a.367.367,0,0,0,.3.1.6.6,0,0,0,.4-.1.713.713,0,0,0,.3-.6v-4h2.6ZM9.8,41.8a4.6,4.6,0,0,0-3.6-3.6V9.8A4.471,4.471,0,0,0,9.8,6.2H33.9a4.471,4.471,0,0,0,3.6,3.6V38.3a4.471,4.471,0,0,0-3.6,3.6H32V39.6a6.633,6.633,0,0,0,2.2-4.9,6.5,6.5,0,1,0-10.8,4.9v2.3H9.8Zm12.8-7.1a5.1,5.1,0,1,1,5.1,5.1A5.058,5.058,0,0,1,22.6,34.7ZM28,44.8a.5.5,0,0,0-.6,0l-2.6,1.3V40.5a7.273,7.273,0,0,0,2.9.7,7.273,7.273,0,0,0,2.9-.7v5.6Z" fill="currentColor"/>
  </g>
  <g id="Group_42" data-name="Group 42">
    <path id="Path_444" data-name="Path 444" d="M30.6,34.7a2.9,2.9,0,1,0-2.9,2.9A2.968,2.968,0,0,0,30.6,34.7Zm-4.4,0a1.5,1.5,0,1,1,1.5,1.5A1.538,1.538,0,0,1,26.2,34.7Z" fill="currentColor"/>
  </g>
  <g id="Group_43" data-name="Group 43">
    <path id="Path_445" data-name="Path 445" d="M21.1,17.7a.684.684,0,0,0,.7.7H32.7a.7.7,0,1,0,0-1.4H21.8C21.4,16.9,21.1,17.3,21.1,17.7Z" fill="currentColor"/>
  </g>
  <g id="Group_44" data-name="Group 44">
    <path id="Path_446" data-name="Path 446" d="M10.9,18.4h6.5a.7.7,0,1,0,0-1.4H10.9a.7.7,0,0,0,0,1.4Z" fill="currentColor"/>
  </g>
  <g id="Group_45" data-name="Group 45">
    <path id="Path_447" data-name="Path 447" d="M10.9,24.2H22.5a.7.7,0,0,0,0-1.4H10.9a.7.7,0,0,0,0,1.4Z" fill="currentColor"/>
  </g>
  <g id="Group_46" data-name="Group 46">
    <path id="Path_448" data-name="Path 448" d="M32.7,22.8H26.9a.7.7,0,0,0,0,1.4h5.8a.684.684,0,0,0,.7-.7C33.5,23.1,33.1,22.8,32.7,22.8Z" fill="currentColor"/>
  </g>
  <g id="Group_47" data-name="Group 47">
    <path id="Path_449" data-name="Path 449" d="M18.9,28.6h-8a.7.7,0,0,0,0,1.4h8a.7.7,0,1,0,0-1.4Z" fill="currentColor"/>
  </g>
  <g id="Group_48" data-name="Group 48">
    <path id="Path_450" data-name="Path 450" d="M16.7,34.4H10.9a.7.7,0,0,0,0,1.4h5.8a.684.684,0,0,0,.7-.7C17.5,34.7,17.1,34.4,16.7,34.4Z" fill="currentColor"/>
  </g>
  <g id="Group_49" data-name="Group 49">
    <path id="Path_451" data-name="Path 451" d="M16,12.6H27.6a.7.7,0,1,0,0-1.4H16a.684.684,0,0,0-.7.7A.751.751,0,0,0,16,12.6Z" fill="currentColor"/>
  </g>
</svg>
